<mxfile host="www.draw.io" modified="2020-02-26T09:32:18.523Z" agent="Mozilla/5.0 (Macintosh; Intel Mac OS X 10_15_3) AppleWebKit/537.36 (KHTML, like Gecko) Chrome/80.0.3987.122 Safari/537.36" etag="lKTEBPmIIs-dhNXaOSDs" version="12.7.6" type="github">
  <diagram id="HYKLmY3Ni0rFSqoCe2Gg" name="第 1 页">
    <mxGraphModel dx="1773" dy="590" grid="1" gridSize="10" guides="1" tooltips="1" connect="1" arrows="1" fold="1" page="1" pageScale="1" pageWidth="827" pageHeight="1169" math="0" shadow="0">
      <root>
        <mxCell id="0" />
        <mxCell id="1" parent="0" />
        <mxCell id="6Yk51bXlvMiWCSTlYt-q-2" value="跳转URL" style="rounded=1;whiteSpace=wrap;html=1;" parent="1" vertex="1">
          <mxGeometry x="270" y="60" width="120" height="40" as="geometry" />
        </mxCell>
        <mxCell id="6Yk51bXlvMiWCSTlYt-q-5" style="edgeStyle=orthogonalEdgeStyle;rounded=0;orthogonalLoop=1;jettySize=auto;html=1;exitX=0.5;exitY=1;exitDx=0;exitDy=0;" parent="1" source="6Yk51bXlvMiWCSTlYt-q-2" target="6Yk51bXlvMiWCSTlYt-q-4" edge="1">
          <mxGeometry relative="1" as="geometry" />
        </mxCell>
        <mxCell id="6Yk51bXlvMiWCSTlYt-q-7" style="edgeStyle=orthogonalEdgeStyle;rounded=0;orthogonalLoop=1;jettySize=auto;html=1;" parent="1" source="6Yk51bXlvMiWCSTlYt-q-4" target="6Yk51bXlvMiWCSTlYt-q-6" edge="1">
          <mxGeometry relative="1" as="geometry" />
        </mxCell>
        <mxCell id="6Yk51bXlvMiWCSTlYt-q-4" value="跳转音视频容器" style="rounded=1;whiteSpace=wrap;html=1;" parent="1" vertex="1">
          <mxGeometry x="270" y="130" width="120" height="40" as="geometry" />
        </mxCell>
        <mxCell id="6Yk51bXlvMiWCSTlYt-q-35" style="edgeStyle=orthogonalEdgeStyle;rounded=0;orthogonalLoop=1;jettySize=auto;html=1;exitX=0.5;exitY=1;exitDx=0;exitDy=0;entryX=0.5;entryY=0;entryDx=0;entryDy=0;" parent="1" source="6Yk51bXlvMiWCSTlYt-q-6" target="6Yk51bXlvMiWCSTlYt-q-8" edge="1">
          <mxGeometry relative="1" as="geometry" />
        </mxCell>
        <mxCell id="6Yk51bXlvMiWCSTlYt-q-6" value="解析URL" style="rounded=1;whiteSpace=wrap;html=1;" parent="1" vertex="1">
          <mxGeometry x="270" y="190" width="120" height="40" as="geometry" />
        </mxCell>
        <mxCell id="6Yk51bXlvMiWCSTlYt-q-12" style="edgeStyle=orthogonalEdgeStyle;rounded=0;orthogonalLoop=1;jettySize=auto;html=1;entryX=0.5;entryY=0;entryDx=0;entryDy=0;exitX=0;exitY=0.5;exitDx=0;exitDy=0;" parent="1" source="6Yk51bXlvMiWCSTlYt-q-15" target="6Yk51bXlvMiWCSTlYt-q-22" edge="1">
          <mxGeometry relative="1" as="geometry">
            <mxPoint x="320" y="380" as="sourcePoint" />
            <Array as="points">
              <mxPoint x="170" y="390" />
            </Array>
            <mxPoint x="170" y="430" as="targetPoint" />
          </mxGeometry>
        </mxCell>
        <mxCell id="6Yk51bXlvMiWCSTlYt-q-18" value="yes" style="text;html=1;align=center;verticalAlign=middle;resizable=0;points=[];labelBackgroundColor=#ffffff;" parent="6Yk51bXlvMiWCSTlYt-q-12" vertex="1" connectable="0">
          <mxGeometry x="-0.25" y="3" relative="1" as="geometry">
            <mxPoint as="offset" />
          </mxGeometry>
        </mxCell>
        <mxCell id="6Yk51bXlvMiWCSTlYt-q-8" value="加载Bundle" style="rounded=1;whiteSpace=wrap;html=1;" parent="1" vertex="1">
          <mxGeometry x="270" y="260" width="120" height="40" as="geometry" />
        </mxCell>
        <mxCell id="6Yk51bXlvMiWCSTlYt-q-19" style="edgeStyle=orthogonalEdgeStyle;rounded=0;orthogonalLoop=1;jettySize=auto;html=1;entryX=0.5;entryY=0;entryDx=0;entryDy=0;" parent="1" source="6Yk51bXlvMiWCSTlYt-q-15" target="3MJpv1zXW1vsBIchZvpa-17" edge="1">
          <mxGeometry relative="1" as="geometry">
            <mxPoint x="500" y="420" as="targetPoint" />
          </mxGeometry>
        </mxCell>
        <mxCell id="6Yk51bXlvMiWCSTlYt-q-20" value="No" style="text;html=1;align=center;verticalAlign=middle;resizable=0;points=[];labelBackgroundColor=#ffffff;" parent="6Yk51bXlvMiWCSTlYt-q-19" vertex="1" connectable="0">
          <mxGeometry x="-0.15" relative="1" as="geometry">
            <mxPoint as="offset" />
          </mxGeometry>
        </mxCell>
        <mxCell id="6Yk51bXlvMiWCSTlYt-q-15" value="是否直播" style="rhombus;whiteSpace=wrap;html=1;" parent="1" vertex="1">
          <mxGeometry x="290" y="350" width="80" height="80" as="geometry" />
        </mxCell>
        <mxCell id="6Yk51bXlvMiWCSTlYt-q-16" value="" style="endArrow=classic;html=1;exitX=0.5;exitY=1;exitDx=0;exitDy=0;entryX=0.5;entryY=0;entryDx=0;entryDy=0;" parent="1" source="6Yk51bXlvMiWCSTlYt-q-8" target="6Yk51bXlvMiWCSTlYt-q-15" edge="1">
          <mxGeometry width="50" height="50" relative="1" as="geometry">
            <mxPoint x="330" y="530" as="sourcePoint" />
            <mxPoint x="380" y="480" as="targetPoint" />
          </mxGeometry>
        </mxCell>
        <mxCell id="6Yk51bXlvMiWCSTlYt-q-37" style="edgeStyle=orthogonalEdgeStyle;rounded=0;orthogonalLoop=1;jettySize=auto;html=1;exitX=0.5;exitY=1;exitDx=0;exitDy=0;entryX=0.5;entryY=0;entryDx=0;entryDy=0;" parent="1" source="6Yk51bXlvMiWCSTlYt-q-22" target="6Yk51bXlvMiWCSTlYt-q-36" edge="1">
          <mxGeometry relative="1" as="geometry" />
        </mxCell>
        <mxCell id="6Yk51bXlvMiWCSTlYt-q-22" value="解析房间号" style="rounded=1;whiteSpace=wrap;html=1;" parent="1" vertex="1">
          <mxGeometry x="109" y="440" width="120" height="40" as="geometry" />
        </mxCell>
        <mxCell id="6Yk51bXlvMiWCSTlYt-q-36" value="加入房间" style="rounded=1;whiteSpace=wrap;html=1;" parent="1" vertex="1">
          <mxGeometry x="109" y="525" width="120" height="40" as="geometry" />
        </mxCell>
        <mxCell id="3MJpv1zXW1vsBIchZvpa-1" style="edgeStyle=orthogonalEdgeStyle;rounded=0;orthogonalLoop=1;jettySize=auto;html=1;exitX=0.5;exitY=1;exitDx=0;exitDy=0;entryX=0.5;entryY=0;entryDx=0;entryDy=0;" edge="1" parent="1">
          <mxGeometry relative="1" as="geometry">
            <mxPoint x="89" y="745" as="sourcePoint" />
            <mxPoint x="89" y="785" as="targetPoint" />
          </mxGeometry>
        </mxCell>
        <mxCell id="6Yk51bXlvMiWCSTlYt-q-40" value="获取评论区初始数据" style="rounded=1;whiteSpace=wrap;html=1;" parent="1" vertex="1">
          <mxGeometry x="30" y="705" width="120" height="40" as="geometry" />
        </mxCell>
        <mxCell id="6Yk51bXlvMiWCSTlYt-q-45" style="edgeStyle=orthogonalEdgeStyle;rounded=0;orthogonalLoop=1;jettySize=auto;html=1;exitX=0.5;exitY=1;exitDx=0;exitDy=0;" parent="1" source="6Yk51bXlvMiWCSTlYt-q-42" edge="1">
          <mxGeometry relative="1" as="geometry">
            <mxPoint x="89" y="705" as="targetPoint" />
          </mxGeometry>
        </mxCell>
        <mxCell id="6Yk51bXlvMiWCSTlYt-q-46" style="edgeStyle=orthogonalEdgeStyle;rounded=0;orthogonalLoop=1;jettySize=auto;html=1;exitX=0.5;exitY=1;exitDx=0;exitDy=0;" parent="1" source="6Yk51bXlvMiWCSTlYt-q-42" target="6Yk51bXlvMiWCSTlYt-q-44" edge="1">
          <mxGeometry relative="1" as="geometry" />
        </mxCell>
        <mxCell id="6Yk51bXlvMiWCSTlYt-q-42" value="展示音视频内容" style="rounded=1;whiteSpace=wrap;html=1;" parent="1" vertex="1">
          <mxGeometry x="109" y="600" width="120" height="40" as="geometry" />
        </mxCell>
        <mxCell id="6Yk51bXlvMiWCSTlYt-q-43" value="" style="endArrow=classic;html=1;exitX=0.5;exitY=1;exitDx=0;exitDy=0;entryX=0.5;entryY=0;entryDx=0;entryDy=0;" parent="1" source="6Yk51bXlvMiWCSTlYt-q-36" target="6Yk51bXlvMiWCSTlYt-q-42" edge="1">
          <mxGeometry width="50" height="50" relative="1" as="geometry">
            <mxPoint x="309" y="625" as="sourcePoint" />
            <mxPoint x="359" y="575" as="targetPoint" />
          </mxGeometry>
        </mxCell>
        <mxCell id="3MJpv1zXW1vsBIchZvpa-3" style="edgeStyle=orthogonalEdgeStyle;rounded=0;orthogonalLoop=1;jettySize=auto;html=1;exitX=0.5;exitY=1;exitDx=0;exitDy=0;" edge="1" parent="1" source="6Yk51bXlvMiWCSTlYt-q-44" target="3MJpv1zXW1vsBIchZvpa-2">
          <mxGeometry relative="1" as="geometry" />
        </mxCell>
        <mxCell id="6Yk51bXlvMiWCSTlYt-q-44" value="获取业务及其他数据" style="rounded=1;whiteSpace=wrap;html=1;" parent="1" vertex="1">
          <mxGeometry x="179" y="705" width="120" height="40" as="geometry" />
        </mxCell>
        <mxCell id="3MJpv1zXW1vsBIchZvpa-7" style="edgeStyle=orthogonalEdgeStyle;rounded=0;orthogonalLoop=1;jettySize=auto;html=1;entryX=0.5;entryY=0;entryDx=0;entryDy=0;" edge="1" parent="1" source="6Yk51bXlvMiWCSTlYt-q-50" target="3MJpv1zXW1vsBIchZvpa-5">
          <mxGeometry relative="1" as="geometry" />
        </mxCell>
        <mxCell id="6Yk51bXlvMiWCSTlYt-q-50" value="展示交互内容" style="rounded=1;whiteSpace=wrap;html=1;" parent="1" vertex="1">
          <mxGeometry x="30" y="785" width="120" height="40" as="geometry" />
        </mxCell>
        <mxCell id="3MJpv1zXW1vsBIchZvpa-10" style="edgeStyle=orthogonalEdgeStyle;rounded=0;orthogonalLoop=1;jettySize=auto;html=1;entryX=0.5;entryY=0;entryDx=0;entryDy=0;" edge="1" parent="1" source="3MJpv1zXW1vsBIchZvpa-2" target="3MJpv1zXW1vsBIchZvpa-5">
          <mxGeometry relative="1" as="geometry" />
        </mxCell>
        <mxCell id="3MJpv1zXW1vsBIchZvpa-2" value="展示业务内容" style="rounded=1;whiteSpace=wrap;html=1;" vertex="1" parent="1">
          <mxGeometry x="179" y="785" width="120" height="40" as="geometry" />
        </mxCell>
        <mxCell id="3MJpv1zXW1vsBIchZvpa-12" style="edgeStyle=orthogonalEdgeStyle;rounded=0;orthogonalLoop=1;jettySize=auto;html=1;entryX=0.5;entryY=0;entryDx=0;entryDy=0;" edge="1" parent="1" source="3MJpv1zXW1vsBIchZvpa-5" target="3MJpv1zXW1vsBIchZvpa-11">
          <mxGeometry relative="1" as="geometry" />
        </mxCell>
        <mxCell id="3MJpv1zXW1vsBIchZvpa-13" value="yes" style="text;html=1;align=center;verticalAlign=middle;resizable=0;points=[];labelBackgroundColor=#ffffff;" vertex="1" connectable="0" parent="3MJpv1zXW1vsBIchZvpa-12">
          <mxGeometry x="-0.3333" y="-3" relative="1" as="geometry">
            <mxPoint as="offset" />
          </mxGeometry>
        </mxCell>
        <mxCell id="3MJpv1zXW1vsBIchZvpa-15" style="edgeStyle=orthogonalEdgeStyle;rounded=0;orthogonalLoop=1;jettySize=auto;html=1;entryX=0.5;entryY=0;entryDx=0;entryDy=0;exitX=1;exitY=0.5;exitDx=0;exitDy=0;" edge="1" parent="1" source="3MJpv1zXW1vsBIchZvpa-5" target="3MJpv1zXW1vsBIchZvpa-14">
          <mxGeometry relative="1" as="geometry" />
        </mxCell>
        <mxCell id="3MJpv1zXW1vsBIchZvpa-16" value="No" style="text;html=1;align=center;verticalAlign=middle;resizable=0;points=[];labelBackgroundColor=#ffffff;" vertex="1" connectable="0" parent="3MJpv1zXW1vsBIchZvpa-15">
          <mxGeometry x="-0.42" y="3" relative="1" as="geometry">
            <mxPoint as="offset" />
          </mxGeometry>
        </mxCell>
        <mxCell id="3MJpv1zXW1vsBIchZvpa-5" value="是否主播" style="rhombus;whiteSpace=wrap;html=1;" vertex="1" parent="1">
          <mxGeometry x="129" y="870" width="80" height="80" as="geometry" />
        </mxCell>
        <mxCell id="3MJpv1zXW1vsBIchZvpa-62" style="edgeStyle=orthogonalEdgeStyle;rounded=0;orthogonalLoop=1;jettySize=auto;html=1;entryX=0.5;entryY=0;entryDx=0;entryDy=0;" edge="1" parent="1" source="3MJpv1zXW1vsBIchZvpa-11" target="3MJpv1zXW1vsBIchZvpa-57">
          <mxGeometry relative="1" as="geometry">
            <Array as="points">
              <mxPoint x="49" y="1160" />
              <mxPoint x="280" y="1160" />
            </Array>
          </mxGeometry>
        </mxCell>
        <mxCell id="3MJpv1zXW1vsBIchZvpa-11" value="展示主播功能区" style="rounded=1;whiteSpace=wrap;html=1;" vertex="1" parent="1">
          <mxGeometry x="-11" y="950" width="120" height="40" as="geometry" />
        </mxCell>
        <mxCell id="3MJpv1zXW1vsBIchZvpa-61" style="edgeStyle=orthogonalEdgeStyle;rounded=0;orthogonalLoop=1;jettySize=auto;html=1;entryX=0.5;entryY=0;entryDx=0;entryDy=0;" edge="1" parent="1" source="3MJpv1zXW1vsBIchZvpa-14" target="3MJpv1zXW1vsBIchZvpa-57">
          <mxGeometry relative="1" as="geometry" />
        </mxCell>
        <mxCell id="3MJpv1zXW1vsBIchZvpa-14" value="展示观众功能区" style="rounded=1;whiteSpace=wrap;html=1;" vertex="1" parent="1">
          <mxGeometry x="220" y="950" width="120" height="40" as="geometry" />
        </mxCell>
        <mxCell id="3MJpv1zXW1vsBIchZvpa-20" style="edgeStyle=orthogonalEdgeStyle;rounded=0;orthogonalLoop=1;jettySize=auto;html=1;" edge="1" parent="1" source="3MJpv1zXW1vsBIchZvpa-17" target="3MJpv1zXW1vsBIchZvpa-19">
          <mxGeometry relative="1" as="geometry" />
        </mxCell>
        <mxCell id="3MJpv1zXW1vsBIchZvpa-17" value="解析房间号" style="rounded=1;whiteSpace=wrap;html=1;" vertex="1" parent="1">
          <mxGeometry x="440" y="440" width="120" height="40" as="geometry" />
        </mxCell>
        <mxCell id="3MJpv1zXW1vsBIchZvpa-22" style="edgeStyle=orthogonalEdgeStyle;rounded=0;orthogonalLoop=1;jettySize=auto;html=1;exitX=0.5;exitY=1;exitDx=0;exitDy=0;entryX=0.5;entryY=0;entryDx=0;entryDy=0;" edge="1" parent="1" source="3MJpv1zXW1vsBIchZvpa-19" target="3MJpv1zXW1vsBIchZvpa-26">
          <mxGeometry relative="1" as="geometry">
            <mxPoint x="500" y="595" as="targetPoint" />
          </mxGeometry>
        </mxCell>
        <mxCell id="3MJpv1zXW1vsBIchZvpa-19" value="加入房间" style="rounded=1;whiteSpace=wrap;html=1;" vertex="1" parent="1">
          <mxGeometry x="440" y="515" width="120" height="40" as="geometry" />
        </mxCell>
        <mxCell id="3MJpv1zXW1vsBIchZvpa-28" style="edgeStyle=orthogonalEdgeStyle;rounded=0;orthogonalLoop=1;jettySize=auto;html=1;exitX=0.5;exitY=1;exitDx=0;exitDy=0;" edge="1" parent="1" source="3MJpv1zXW1vsBIchZvpa-26" target="3MJpv1zXW1vsBIchZvpa-27">
          <mxGeometry relative="1" as="geometry" />
        </mxCell>
        <mxCell id="3MJpv1zXW1vsBIchZvpa-29" value="yes" style="text;html=1;align=center;verticalAlign=middle;resizable=0;points=[];labelBackgroundColor=#ffffff;" vertex="1" connectable="0" parent="3MJpv1zXW1vsBIchZvpa-28">
          <mxGeometry x="-0.3333" relative="1" as="geometry">
            <mxPoint as="offset" />
          </mxGeometry>
        </mxCell>
        <mxCell id="3MJpv1zXW1vsBIchZvpa-31" style="edgeStyle=orthogonalEdgeStyle;rounded=0;orthogonalLoop=1;jettySize=auto;html=1;exitX=1;exitY=0.5;exitDx=0;exitDy=0;entryX=0;entryY=0.5;entryDx=0;entryDy=0;" edge="1" parent="1" source="3MJpv1zXW1vsBIchZvpa-26" target="3MJpv1zXW1vsBIchZvpa-30">
          <mxGeometry relative="1" as="geometry" />
        </mxCell>
        <mxCell id="3MJpv1zXW1vsBIchZvpa-33" value="No" style="text;html=1;align=center;verticalAlign=middle;resizable=0;points=[];labelBackgroundColor=#ffffff;" vertex="1" connectable="0" parent="3MJpv1zXW1vsBIchZvpa-31">
          <mxGeometry y="1" relative="1" as="geometry">
            <mxPoint as="offset" />
          </mxGeometry>
        </mxCell>
        <mxCell id="3MJpv1zXW1vsBIchZvpa-26" value="是否拨打方" style="rhombus;whiteSpace=wrap;html=1;" vertex="1" parent="1">
          <mxGeometry x="460" y="610" width="80" height="80" as="geometry" />
        </mxCell>
        <mxCell id="3MJpv1zXW1vsBIchZvpa-49" style="edgeStyle=orthogonalEdgeStyle;rounded=0;orthogonalLoop=1;jettySize=auto;html=1;entryX=0.5;entryY=0;entryDx=0;entryDy=0;" edge="1" parent="1" source="3MJpv1zXW1vsBIchZvpa-27" target="3MJpv1zXW1vsBIchZvpa-45">
          <mxGeometry relative="1" as="geometry" />
        </mxCell>
        <mxCell id="3MJpv1zXW1vsBIchZvpa-27" value="展示音视频内容" style="rounded=1;whiteSpace=wrap;html=1;" vertex="1" parent="1">
          <mxGeometry x="440" y="730" width="120" height="40" as="geometry" />
        </mxCell>
        <mxCell id="3MJpv1zXW1vsBIchZvpa-35" style="edgeStyle=orthogonalEdgeStyle;rounded=0;orthogonalLoop=1;jettySize=auto;html=1;" edge="1" parent="1" source="3MJpv1zXW1vsBIchZvpa-30" target="3MJpv1zXW1vsBIchZvpa-34">
          <mxGeometry relative="1" as="geometry" />
        </mxCell>
        <mxCell id="3MJpv1zXW1vsBIchZvpa-30" value="展示震铃内容" style="rounded=1;whiteSpace=wrap;html=1;" vertex="1" parent="1">
          <mxGeometry x="620" y="630" width="120" height="40" as="geometry" />
        </mxCell>
        <mxCell id="3MJpv1zXW1vsBIchZvpa-38" style="edgeStyle=orthogonalEdgeStyle;rounded=0;orthogonalLoop=1;jettySize=auto;html=1;exitX=1;exitY=0.5;exitDx=0;exitDy=0;entryX=0;entryY=0.5;entryDx=0;entryDy=0;" edge="1" parent="1" source="3MJpv1zXW1vsBIchZvpa-34" target="3MJpv1zXW1vsBIchZvpa-37">
          <mxGeometry relative="1" as="geometry" />
        </mxCell>
        <mxCell id="3MJpv1zXW1vsBIchZvpa-39" value="no" style="text;html=1;align=center;verticalAlign=middle;resizable=0;points=[];labelBackgroundColor=#ffffff;" vertex="1" connectable="0" parent="3MJpv1zXW1vsBIchZvpa-38">
          <mxGeometry x="-0.1667" y="-4" relative="1" as="geometry">
            <mxPoint as="offset" />
          </mxGeometry>
        </mxCell>
        <mxCell id="3MJpv1zXW1vsBIchZvpa-42" style="edgeStyle=orthogonalEdgeStyle;rounded=0;orthogonalLoop=1;jettySize=auto;html=1;entryX=0.5;entryY=0;entryDx=0;entryDy=0;" edge="1" parent="1" source="3MJpv1zXW1vsBIchZvpa-34" target="3MJpv1zXW1vsBIchZvpa-41">
          <mxGeometry relative="1" as="geometry" />
        </mxCell>
        <mxCell id="3MJpv1zXW1vsBIchZvpa-43" value="yes" style="text;html=1;align=center;verticalAlign=middle;resizable=0;points=[];labelBackgroundColor=#ffffff;" vertex="1" connectable="0" parent="3MJpv1zXW1vsBIchZvpa-42">
          <mxGeometry x="0.2" y="2" relative="1" as="geometry">
            <mxPoint x="-2" y="-10" as="offset" />
          </mxGeometry>
        </mxCell>
        <mxCell id="3MJpv1zXW1vsBIchZvpa-34" value="是否接听" style="rhombus;whiteSpace=wrap;html=1;" vertex="1" parent="1">
          <mxGeometry x="560" y="870" width="80" height="80" as="geometry" />
        </mxCell>
        <mxCell id="3MJpv1zXW1vsBIchZvpa-37" value="结束" style="ellipse;whiteSpace=wrap;html=1;aspect=fixed;" vertex="1" parent="1">
          <mxGeometry x="700" y="890" width="40" height="40" as="geometry" />
        </mxCell>
        <mxCell id="3MJpv1zXW1vsBIchZvpa-53" style="edgeStyle=orthogonalEdgeStyle;rounded=0;orthogonalLoop=1;jettySize=auto;html=1;exitX=0.5;exitY=1;exitDx=0;exitDy=0;entryX=0.5;entryY=0;entryDx=0;entryDy=0;" edge="1" parent="1" source="3MJpv1zXW1vsBIchZvpa-41" target="3MJpv1zXW1vsBIchZvpa-52">
          <mxGeometry relative="1" as="geometry" />
        </mxCell>
        <mxCell id="3MJpv1zXW1vsBIchZvpa-41" value="展示对方音视频内容" style="rounded=1;whiteSpace=wrap;html=1;" vertex="1" parent="1">
          <mxGeometry x="540" y="990" width="120" height="40" as="geometry" />
        </mxCell>
        <mxCell id="3MJpv1zXW1vsBIchZvpa-51" style="edgeStyle=orthogonalEdgeStyle;rounded=0;orthogonalLoop=1;jettySize=auto;html=1;entryX=0;entryY=0.5;entryDx=0;entryDy=0;" edge="1" parent="1" source="3MJpv1zXW1vsBIchZvpa-45" target="3MJpv1zXW1vsBIchZvpa-34">
          <mxGeometry relative="1" as="geometry" />
        </mxCell>
        <mxCell id="3MJpv1zXW1vsBIchZvpa-45" value="等待接听" style="rounded=1;whiteSpace=wrap;html=1;" vertex="1" parent="1">
          <mxGeometry x="440" y="820" width="120" height="40" as="geometry" />
        </mxCell>
        <mxCell id="3MJpv1zXW1vsBIchZvpa-55" style="edgeStyle=orthogonalEdgeStyle;rounded=0;orthogonalLoop=1;jettySize=auto;html=1;entryX=0.5;entryY=0;entryDx=0;entryDy=0;" edge="1" parent="1" source="3MJpv1zXW1vsBIchZvpa-52" target="3MJpv1zXW1vsBIchZvpa-54">
          <mxGeometry relative="1" as="geometry" />
        </mxCell>
        <mxCell id="3MJpv1zXW1vsBIchZvpa-52" value="获取业务数据" style="rounded=1;whiteSpace=wrap;html=1;" vertex="1" parent="1">
          <mxGeometry x="540" y="1070" width="120" height="40" as="geometry" />
        </mxCell>
        <mxCell id="3MJpv1zXW1vsBIchZvpa-60" style="edgeStyle=orthogonalEdgeStyle;rounded=0;orthogonalLoop=1;jettySize=auto;html=1;entryX=0.5;entryY=0;entryDx=0;entryDy=0;" edge="1" parent="1" source="3MJpv1zXW1vsBIchZvpa-54" target="3MJpv1zXW1vsBIchZvpa-57">
          <mxGeometry relative="1" as="geometry" />
        </mxCell>
        <mxCell id="3MJpv1zXW1vsBIchZvpa-54" value="展示业务内容" style="rounded=1;whiteSpace=wrap;html=1;" vertex="1" parent="1">
          <mxGeometry x="540" y="1140" width="120" height="40" as="geometry" />
        </mxCell>
        <mxCell id="3MJpv1zXW1vsBIchZvpa-57" value="页面初始化完成" style="rounded=1;whiteSpace=wrap;html=1;" vertex="1" parent="1">
          <mxGeometry x="220" y="1220" width="120" height="40" as="geometry" />
        </mxCell>
      </root>
    </mxGraphModel>
  </diagram>
</mxfile>
